<?xml version="1.0" encoding="UTF-8" standalone="no"?>
<svg
   xmlns:dc="http://purl.org/dc/elements/1.1/"
   xmlns:cc="http://creativecommons.org/ns#"
   xmlns:rdf="http://www.w3.org/1999/02/22-rdf-syntax-ns#"
   xmlns:svg="http://www.w3.org/2000/svg"
   xmlns="http://www.w3.org/2000/svg"
   xmlns:sodipodi="http://sodipodi.sourceforge.net/DTD/sodipodi-0.dtd"
   xmlns:inkscape="http://www.inkscape.org/namespaces/inkscape"
   viewBox="0 0 512 512"
   height="512"
   width="512"
   id="svg2"
   version="1.1"
   sodipodi:docname="icon_ippocrate_512x512.svg"
   inkscape:version="0.92.3 (2405546, 2018-03-11)">
  <sodipodi:namedview
     pagecolor="#ffffff"
     bordercolor="#666666"
     borderopacity="1"
     objecttolerance="10"
     gridtolerance="10"
     guidetolerance="10"
     inkscape:pageopacity="0"
     inkscape:pageshadow="2"
     inkscape:window-width="929"
     inkscape:window-height="480"
     id="namedview6"
     showgrid="false"
     inkscape:zoom="0.34570311"
     inkscape:cx="341.33334"
     inkscape:cy="457.03956"
     inkscape:window-x="0"
     inkscape:window-y="0"
     inkscape:window-maximized="0"
     inkscape:current-layer="svg2" />
  <metadata
     id="metadata8">
    <rdf:RDF>
      <cc:Work
         rdf:about="">
        <dc:format>image/svg+xml</dc:format>
        <dc:type
           rdf:resource="http://purl.org/dc/dcmitype/StillImage" />
        <dc:title></dc:title>
      </cc:Work>
    </rdf:RDF>
  </metadata>
  <defs
     id="defs6" />
  <path
     id="path819"
     d="M 152.07277,374.76504 C 94.92118,321.63819 48.159618,277.72943 48.15823,277.19002 c 0,-0.53939 -1.503774,-2.59417 -3.338541,-4.56615 -4.74645,-5.10144 -15.210633,-20.91728 -16.075602,-24.29709 -0.401147,-1.56738 -1.327034,-3.54125 -2.057619,-4.38639 -1.286636,-1.48847 -2.874335,-6.13441 -6.476428,-18.95158 -10.057169,-35.78631 0.534625,-79.1482 26.718129,-109.38172 6.715033,-7.7537 32.35032,-29.42578 34.806919,-29.42578 0.362325,0 2.509069,-1.12306 4.770497,-2.49571 7.083947,-4.2996 25.166545,-10.535642 38.848935,-13.397522 4.54894,-0.951444 10.50384,-2.322565 13.23321,-3.046854 5.77846,-1.533539 28.85939,-1.376462 33.08303,0.225121 1.51631,0.574968 5.48628,1.388686 8.82215,1.808286 8.53879,1.074022 38.3144,10.650939 41.99199,13.506179 0.95756,0.74342 2.05206,1.35165 2.43226,1.35165 2.02877,0 14.14204,8.71537 24.08226,17.32691 7.58444,6.57063 7.58444,6.57063 15.12999,0 10.1843,-8.86841 12.16811,-10.31917 21.42115,-15.66521 9.36907,-6.59279 30.24923,-16.777493 42.63474,-18.706496 8.63641,-3.056753 59.53977,-9.748698 64.89227,4.934899 -0.31224,0.870213 -96.76173,90.934437 -108.53986,101.354147 -2.94092,2.60174 -12.94577,11.93667 -22.233,20.7443 -20.31316,19.26414 -13.26185,20.78735 -46.27303,-9.99586 -15.32874,-14.29413 -29.78058,-27.21908 -32.11531,-28.72207 -18.11691,-11.66292 -47.55767,-9.47804 -63.70365,4.72762 -13.04176,11.47451 -18.91782,30.40149 -14.66044,47.22134 3.23063,12.76329 4.90297,14.61156 57.81153,63.89321 27.31342,25.44104 56.36005,52.53356 64.5481,60.20562 18.74152,17.56051 -2.54019,25.78957 134.09338,-93.65695 86.41366,-75.54376 103.99616,-91.86114 118.26343,-102.8436 8.22744,13.34989 10.71272,24.29829 13.42599,32.67152 1.95135,6.03158 2.76332,42.18372 1.12157,49.9356 -4.96301,23.43409 -13.50223,40.62983 -29.12595,58.65186 -4.51582,5.20907 -208.05692,195.15005 -209.1231,195.15005 -0.32035,0 -47.34287,-43.46743 -104.49446,-96.59431 z"
     style="fill:#0072b1;fill-opacity:1;stroke:#0072b1;stroke-width:0.75974584;stroke-opacity:1"
     inkscape:connector-curvature="0" />
</svg>
